<svg xmlns="http://www.w3.org/2000/svg" xmlns:xlink="http://www.w3.org/1999/xlink" width="500" height="500" viewBox="0 0 500 500"><defs><clipPath id="b"><rect width="500" height="500"/></clipPath></defs><g id="a" clip-path="url(#b)"><ellipse cx="60.93" cy="35.178" rx="60.93" ry="35.178" transform="translate(334.449 313.434)" fill="#e6e6e6"/><path d="M149.987,327.732c23.313,13.46,24.26,35.681.946,49.141s-62.057,13.061-85.371-.4-23.313-35.283,0-48.743S126.674,314.272,149.987,327.732Z" fill="#e6e6e6"/><path d="M340.139,400.261,263.62,356.082a9.575,9.575,0,0,0-8.66,0l-76.519,44.179c-2.391,1.381-2.391,3.619,0,5l34.851,20.122-32.549,18.782c-6.612,3.818-17.371,3.815-23.983,0l-51.2-29.56c-2.825-1.631-4.381-3.679-4.381-5.767s1.556-4.137,4.381-5.768l45.371-26.2a2,2,0,1,0-2-3.465l-45.371,26.2c-4.115,2.376-6.381,5.655-6.381,9.233s2.267,6.856,6.381,9.232l51.2,29.559a30.517,30.517,0,0,0,27.983,0l34.551-19.937L254.96,449.44a9.575,9.575,0,0,0,8.66,0l76.519-44.179C342.531,403.88,342.531,401.642,340.139,400.261Z" fill="#e6e6e6"/><path d="M427.583,332.089s2.777-41.177,1.959-56.364c-.648-12.033-2.283-16.992-2.624-19.706,0,0-2.947-28.053-3.19-51.891-.117-11.473-1.18-19.641-7.465-33.281l-40.435,9.673c-.822,6.058-3.6,46.359-4.255,82.191-.575,31.367.32,58.832.32,58.832l.041,1.652c0,1.832-.4,3.114-1.582,6.056a35.521,35.521,0,0,1-6.262,10.361c-.832.9-6.6,5.942-7.359,7.018-2.477,2.889,2.654,4.517,6.465,4.008,4.021-.536,10.266-2.064,12.036-4.512,1.181-1.631,2.067-7.346,3.28-9,4.09-5.577,5.77-7.975,5.8-9.757.055-3.219-1.053-4.493-1.448-6.311.33-3.8,8.531-35.054,8.673-46.118.068-5.273-.288-12.534-.288-12.534l6.365-36.519c2.459,9.118,6.778,31.767,8.232,40.456,1.777,10.616,6.407,37.873,9.143,54.136,1.055,6.273,1.546,9.44,2.027,12.347,0,.013.119,1.233.119,1.246.085,1.572,1.234,18.478,1.856,22.018,1.3,7.393,7.871,6.462,8.923.483.895-5.089-.226-20.842-.25-22.775Z" fill="#ffa8a7"/><path d="M427.583,332.09c1.854.031.634,7.207,1.113,11.824.513,4.949,2.135,8.563,2.6,12.621.531,4.636.118,6.578-1.545,10.389-1.293,2.964-7.789,7.027-10.255,2.787-2.5-4.29-3-9.08-2.717-13.7.293-4.772,0-7.725.1-11.354.086-3.2-2.26-11.374.142-11.833l.119,1.246c.862,1.724,9.644,2.068,10.529-.274Z" fill="#37474f"/><path d="M384.7,331.266c.567,2.313-.021,8.653-.021,8.653s-1,2.187-4.569,3.643l-1.6-8.819Z" fill="#263238"/><path d="M380.113,343.562l-7.866-2.583L370.352,334l8.837,4.474Z"/><path d="M371.934,323.2l-.042-1.652c-1.067.519-3.419,9.124-6.6,15.026-2.9,5.389-8.656,8.392-10.523,10.737-2.5,3.136,2.357,7.18,10.152,5.513,3.869-.827,9.727-3.3,11.316-5.913s2.125-7.406,3.424-9.325,4.385-4.13,5.04-6.315a11.885,11.885,0,0,0-.017-6.031c-.61-1.988-1.143-4.393-1.822-4.176l-.045,1.512c-.522,1.064-2.4,2.3-6.341,2.515C374.605,325.187,372.791,324.9,371.934,323.2Z" fill="#37474f"/><path d="M375.055,180.03s-2.673,29.667-3.534,55.943-.091,60.17-.091,60.17,2.712,1.94,8.683,2.208,8.036-1.723,8.036-1.723,3.647-11.906,4.218-20.286a85.575,85.575,0,0,0,0-13.631l5.332-35.057s6.759,34.516,7.526,38.69,7.247,41.051,7.247,41.051,2.543,2.348,9.062,2.224c5.762-.11,7.438-2.177,7.438-2.177s1.388-22.619,1.072-32.283c-.279-8.516-2.224-15.3-2.612-20.824s-.617-36.988-1.005-48.967-1.466-22.387-11.7-36.8Z" fill="#455a64"/><path d="M397.7,227.654l-4.435-21.961s-7.737-2.02-11.343-6.744c0,0,1,5.238,8.956,8.587l4.72,21.88-1.6,22.606Z" fill="#37474f"/><path d="M318.562,174.534a19.163,19.163,0,0,0,8.508-.63,16.884,16.884,0,0,1-3.369-2.234,2.324,2.324,0,0,1-.4-3.222c.362-.393,1.282.532,3.364,1.123,2.659.753,4.587.908,7.153,2.388a4.688,4.688,0,0,0,3.2.563c6.244-1.176,20.794-7.99,27.456-11.563,1.367-5.544,3.721-13.71,6.636-23.885,2.688-9.381,7.009-13.486,13.874-13.33l-.949,20.365s-3.277,14.072-7.336,25.558c-.715,2.023-3.561,4.337-8.779,6.275-6.759,2.511-14.921,4.875-24.891,7.6a77.11,77.11,0,0,1-12.381,2.41c-10.541.9-14.579-2.031-16.019-4.074C310.613,176.18,313.036,173.415,318.562,174.534Z" fill="#ffa8a7"/><path d="M402.722,123.588l9.619.746a22.36,22.36,0,0,0,7.237,21.533l-4.29,17.287c.142,2.134,3.685,9.334,7.116,17.081-6.451,8.636-38.093,11.586-48.411,4.006,1.592-8.141,2.781-14.326,3.1-17.411l-.523-11.169c-12.932-10.614,2.677-26.777,8.421-31.917l7.224-.321Z" fill="#27debf"/><path d="M443.229,209.677a5.369,5.369,0,0,1-2.055-4.634c.166-1.614.539-3.636,1.2-4.416s4.873-6.486,6.735-3.165c2.031,3.623,1.592,5.084,1.592,5.084Z" fill="#f28f8f"/><path d="M430.275,285.993a25.855,25.855,0,0,1-12.753-3.867L367.594,253.3c-7.714-4.454-13.99-15.324-13.99-24.232V187.181a7.973,7.973,0,0,0-11.96-6.9L324.107,190.4a2,2,0,1,1-2-3.464l17.536-10.124a11.973,11.973,0,0,1,17.96,10.369v41.887c0,7.505,5.491,17.015,11.99,20.767l49.928,28.827c6.39,3.689,12.314,4.332,16.678,1.813s6.768-7.972,6.768-15.35V211.65c0-9.059,5.792-19.5,13.187-23.768l12.185-7.035a2,2,0,1,1,2,3.463l-12.185,7.036c-6.064,3.5-11.187,12.8-11.187,20.3v53.475c0,8.868-3.114,15.549-8.768,18.814A15.648,15.648,0,0,1,430.275,285.993Z" fill="#37474f"/><path d="M343.971,193.29v3.271c0,5.233-3.674,11.6-8.206,14.213L305.478,228.26l-30.789-17.779-.006-26.662,29.894-13.808c4.751-2.2,12.276-1.853,16.808.764l14.38,8.3C340.3,181.694,343.971,188.057,343.971,193.29Z" fill="#37474f"/><path d="M304.577,170.011c4.751-2.2,12.276-1.853,16.808.764l14.38,8.3c4.532,2.617,4.355,6.517-.4,8.711l-29.888,13.8-30.8-17.773Z" fill="#455a64"/><path d="M308.387,195.176a9.07,9.07,0,0,1,4.1,7.107v21.929l-7.013,4.048-30.788-17.779-.007-26.662,7.8-3.6Z" opacity="0.15"/><path d="M272.066,179.228a2.862,2.862,0,0,1,2.881.287L305.23,197a9.066,9.066,0,0,1,4.1,7.107v26.079a2.853,2.853,0,0,1-1.207,2.647c-.692.392-3.166,1.82-3.851,2.223a2.851,2.851,0,0,1-2.9-.276L271.1,217.295a9.07,9.07,0,0,1-4.1-7.107v-26.08a2.885,2.885,0,0,1,1.192-2.652C268.878,181.056,271.372,179.629,272.066,179.228Z" fill="#37474f"/><path d="M301.378,199.223l-30.284-17.484c-2.265-1.308-4.1-.248-4.1,2.369v26.08a9.072,9.072,0,0,0,4.1,7.107l30.284,17.484c2.266,1.308,4.1.247,4.1-2.369V206.33A9.069,9.069,0,0,0,301.378,199.223Z" fill="#455a64"/><path d="M265.51,229.577v4.512c0,1.83.634,3.1,1.667,3.7.46.265,2.264,1.307,2.727,1.577a4.031,4.031,0,0,0,4.074-.385l25.047-14.461,0-17.778-2.723-1.574-25.047,14.461A12.694,12.694,0,0,0,265.51,229.577Zm11.332-5.614a4.165,4.165,0,0,1,.14,1.07,8.506,8.506,0,0,1-3.849,6.667,3.988,3.988,0,0,1-.984.4,4.056,4.056,0,0,1-.142-1.052,8.506,8.506,0,0,1,3.849-6.666A4.16,4.16,0,0,1,276.842,223.963Z" fill="#27debf"/><path d="M269.756,239.263c.058.039.113.082.175.116-.01,0-.01-.01-.02-.01-.03-.02-.07-.04-.1-.06-.6-.35-2.209-1.28-2.63-1.53-1.05-.58-1.669-1.85-1.669-3.69v-4.51a11.643,11.643,0,0,1,1.689-5.67l2.72,1.57a11.8,11.8,0,0,0-1.679,5.67v4.51a4.589,4.589,0,0,0,1.049,3.22A2.286,2.286,0,0,0,269.756,239.263Z" opacity="0.2"/><path d="M299.012,206.739,273.981,221.2a11.723,11.723,0,0,0-4.06,4.28l-2.72-1.57a11.784,11.784,0,0,1,4.051-4.28l25.049-14.46Z" fill="#fff" opacity="0.5"/><path d="M270.041,239.449c-.019-.01-.049-.03-.07-.04a.173.173,0,0,1,.051.02C270.032,239.439,270.032,239.449,270.041,239.449Z" fill="#fff" opacity="0.5"/><path d="M270.022,239.429a.173.173,0,0,0-.051-.02.138.138,0,0,1-.04-.03C269.961,239.4,269.992,239.409,270.022,239.429Z" opacity="0.2"/><path d="M276.976,225.028a4.4,4.4,0,0,0-.134-1.065h0c1.644-.458,2.863.578,2.863,2.638a8.514,8.514,0,0,1-3.847,6.67c-1.781,1.043-3.3.493-3.714-1.175a3.249,3.249,0,0,0,.985-.4A8.518,8.518,0,0,0,276.976,225.028Z" opacity="0.2"/><path d="M242.418,216.243v4.512c0,1.83.634,3.1,1.667,3.7.46.265,2.264,1.307,2.727,1.577a4.028,4.028,0,0,0,4.074-.385l25.047-14.461,0-17.778-2.723-1.574-25.047,14.461A12.694,12.694,0,0,0,242.418,216.243Zm11.332-5.614a4.164,4.164,0,0,1,.14,1.07,8.506,8.506,0,0,1-3.849,6.667,3.988,3.988,0,0,1-.984.4,4.053,4.053,0,0,1-.142-1.051,8.506,8.506,0,0,1,3.849-6.667A4.143,4.143,0,0,1,253.75,210.629Z" fill="#27debf"/><path d="M246.931,226.1c-.02-.01-.03-.02-.05-.02a.238.238,0,0,0-.07-.04c-.47-.28-2.269-1.33-2.72-1.59-1.049-.59-1.67-1.86-1.67-3.7v-4.51a9.919,9.919,0,0,1,.45-2.84,13.484,13.484,0,0,1,1.231-2.82l.009.01,2.721,1.56a.01.01,0,0,1-.011.01,12.87,12.87,0,0,0-.69,1.38,10.912,10.912,0,0,0-.98,4.28v4.51a4.612,4.612,0,0,0,1.05,3.22A2.8,2.8,0,0,0,246.931,226.1Z" opacity="0.2"/><path d="M275.921,193.409l-25.03,14.46a11.64,11.64,0,0,0-4.059,4.28l-2.721-1.56a11.775,11.775,0,0,1,4.05-4.3l25.05-14.46Z" fill="#fff" opacity="0.5"/><path d="M246.951,226.119a.574.574,0,0,1-.07-.04c.02,0,.03.01.05.02S246.941,226.119,246.951,226.119Z" fill="#fff" opacity="0.5"/><path d="M253.884,211.694a4.4,4.4,0,0,0-.134-1.065h0c1.644-.458,2.863.578,2.863,2.638a8.514,8.514,0,0,1-3.847,6.67c-1.781,1.043-3.3.493-3.714-1.175a3.249,3.249,0,0,0,.985-.4A8.516,8.516,0,0,0,253.884,211.694Z" opacity="0.2"/><line x1="4.028" y1="15.681" transform="translate(245.962 182.368)" stroke-width="3" stroke="#e0e0e0" stroke-linecap="round" stroke-linejoin="round" fill="none"/><line x1="14.898" y1="11.769" transform="translate(223.846 192.822)" stroke-width="3" stroke="#e0e0e0" stroke-linecap="round" stroke-linejoin="round" fill="none"/><line x1="17.409" y2="1.35" transform="translate(218.223 217.602)" stroke-width="3" stroke="#e0e0e0" stroke-linecap="round" stroke-linejoin="round" fill="none"/><path d="M456.841,193.359a98.9,98.9,0,0,0-1.64-11,148.71,148.71,0,0,0-9.06-24.815c-1.668-3.193-5.44-7.841-8.112-11.768-3.779-5.553-6.435-8.666-9.309-12.432-6.316-8.274-9.006-8.744-16.379-9.005-1,2.629-3.28,13.408,4.105,22.12l15.845,16.7c.9,1.449,10.578,17.994,12.189,24.108a4.575,4.575,0,0,1-.376,3.232,38.706,38.706,0,0,0-2.772,8.754c-.475,2.121-1.731,3.8-1.3,4.127a2.825,2.825,0,0,0,3.509-.28,14.916,14.916,0,0,0,2.732-4.114,2.14,2.14,0,0,1,2.288,2.184c.088,1.231-.47,2.947-.892,5.079-.082.411-.183.892-.378,2.053a12.8,12.8,0,0,0-.274,2.383c2.018.374,4.083-.853,7.444-4.038C457.494,203.765,457.694,199.9,456.841,193.359Z" fill="#ffa8a7"/><path d="M404.443,118.731c.052-1.973,6.559-6.685,9.848-11.663,3.048-4.613,7.31-17.315-2.787-21.376,0,0,2.172-6.1-1.782-9.681s-9.291-1.375-10.132.13a9.031,9.031,0,0,0-8.456-6.645,7.873,7.873,0,0,0-8.281,6.179,7.585,7.585,0,0,0-9.218,2.579c-3.7,5.108,1.214,9.79,1.214,9.79a4.231,4.231,0,0,0-1.881,3.9c.293,2.163,2.361,2.7,2.605,3.772a1.061,1.061,0,0,1-1.815.941,2.174,2.174,0,0,0,2.561,1.728c2.333-.127,4.408-3.294,4.408-3.294Z" fill="#263238"/><path d="M383.237,85.053c-2.987,1.295-5.827,5.864-5.784,18.646.037,10.834,3.358,13.574,5.037,14.378s4.952.4,8.137-.092l-.012,6.228s-5.76,7.155-.6,10.714c13.318-2.331,14.345-11.068,14.345-11.068l.235-13.58s1.833,1.925,5.055-.9c2.66-2.33,3.617-6.327,1.62-8.52s-4.565-2.37-6.882.082c0,0-4.25.272-10.638-3.739C387.216,93.1,384.987,89.133,383.237,85.053Z" fill="#ffa8a7"/><path d="M390.915,110.482a1.545,1.545,0,1,1-1.6-1.55A1.57,1.57,0,0,1,390.915,110.482Z" fill="#b16668"/><path d="M382.676,100.018a1.439,1.439,0,1,1-1.492-1.445A1.462,1.462,0,0,1,382.676,100.018Z" fill="#263238"/><path d="M393.753,100.66a1.545,1.545,0,1,1-1.6-1.55A1.568,1.568,0,0,1,393.753,100.66Z" fill="#263238"/><path d="M381.679,94.273l-3.049,1.784a1.7,1.7,0,0,0,2.4.651A1.829,1.829,0,0,0,381.679,94.273Z" fill="#263238"/><path d="M404.37,99.177l-.036,6.019a2.825,2.825,0,0,1-2.9-2.912A3.109,3.109,0,0,1,404.37,99.177Z" fill="#263238"/><path d="M386.622,98.572l-.616,8.636-4.552-1.067Z" fill="#f28f8f"/><path d="M390.627,117.985c3.354-.393,10.275-2.318,11.4-5.13a7.385,7.385,0,0,1-2.481,3.568c-2.092,1.8-8.925,3.658-8.925,3.658Z" fill="#f28f8f"/><path d="M430.9,51.181a14.188,14.188,0,0,1,3.55,1.945,10.936,10.936,0,0,1,2.644,2.8,8.65,8.65,0,0,1,1.3,3.439,7.611,7.611,0,0,1-.475,3.869,7.752,7.752,0,0,1-1.584,2.656,9.29,9.29,0,0,1-2.13,1.678,15.082,15.082,0,0,1-2.4,1.107q-1.245.444-2.354.844a12.547,12.547,0,0,0-2.039.941,3.57,3.57,0,0,0-1.391,1.395,1.7,1.7,0,0,1-.662.639,1,1,0,0,1-.861.051l-3.115-1.174a1.2,1.2,0,0,1-.676-.628.971.971,0,0,1-.014-.894,7.628,7.628,0,0,1,1.733-2.554,10.732,10.732,0,0,1,2.252-1.632,15.441,15.441,0,0,1,2.46-1.062q1.256-.417,2.347-.825a9.944,9.944,0,0,0,1.891-.925,2.761,2.761,0,0,0,1.128-1.378,3.3,3.3,0,0,0-.347-3.055,5.972,5.972,0,0,0-3.106-2.316,5.752,5.752,0,0,0-6.435,1.555,2.476,2.476,0,0,1-.684.514,1.119,1.119,0,0,1-.844-.06l-3.32-1.25a.969.969,0,0,1-.542-.485.913.913,0,0,1-.02-.757,6.766,6.766,0,0,1,1.985-2.6,10.7,10.7,0,0,1,3.272-1.857,12.991,12.991,0,0,1,4.069-.737A11.4,11.4,0,0,1,430.9,51.181Zm-7.126,23.9a1.2,1.2,0,0,1,.689,1.523l-1.358,3.607a1.2,1.2,0,0,1-1.523.69l-3.524-1.327a1.2,1.2,0,0,1-.691-1.524l1.358-3.607a1.2,1.2,0,0,1,1.524-.689Z" fill="#27debf"/><path d="M432.633,94.278a1.127,1.127,0,0,1,.041,1.576l-2.5,2.632a1.128,1.128,0,0,1-1.576.04l-2.573-2.446a1.128,1.128,0,0,1-.039-1.575l2.5-2.633a1.127,1.127,0,0,1,1.575-.04Zm14.96-18.129a13.369,13.369,0,0,1,2.367,2.99,10.263,10.263,0,0,1,1.268,3.4A8.143,8.143,0,0,1,451.1,86a7.187,7.187,0,0,1-1.833,3.186,7.329,7.329,0,0,1-2.349,1.723,8.7,8.7,0,0,1-2.465.675,14.286,14.286,0,0,1-2.5.079q-1.243-.072-2.354-.132a11.748,11.748,0,0,0-2.115.069,3.368,3.368,0,0,0-1.72.7,1.6,1.6,0,0,1-.809.312.943.943,0,0,1-.766-.272l-2.274-2.162a1.144,1.144,0,0,1-.356-.794.918.918,0,0,1,.316-.782,7.215,7.215,0,0,1,2.443-1.58,10.146,10.146,0,0,1,2.554-.59,14.406,14.406,0,0,1,2.525-.019q1.244.1,2.34.145a9.373,9.373,0,0,0,1.983-.109,2.607,2.607,0,0,0,1.483-.782,3.112,3.112,0,0,0,.82-2.78,5.616,5.616,0,0,0-1.844-3.149,5.425,5.425,0,0,0-6.159-1.014,2.32,2.32,0,0,1-.783.2,1.054,1.054,0,0,1-.709-.361l-2.424-2.305a.913.913,0,0,1-.293-.62.855.855,0,0,1,.261-.663,6.368,6.368,0,0,1,2.676-1.528,10.034,10.034,0,0,1,3.524-.41,12.161,12.161,0,0,1,3.8.853A10.735,10.735,0,0,1,447.593,76.149Z" fill="#27debf"/><g opacity="0.6"><path d="M432.633,94.278a1.127,1.127,0,0,1,.041,1.576l-2.5,2.632a1.128,1.128,0,0,1-1.576.04l-2.573-2.446a1.128,1.128,0,0,1-.039-1.575l2.5-2.633a1.127,1.127,0,0,1,1.575-.04Zm14.96-18.129a13.369,13.369,0,0,1,2.367,2.99,10.263,10.263,0,0,1,1.268,3.4A8.143,8.143,0,0,1,451.1,86a7.187,7.187,0,0,1-1.833,3.186,7.329,7.329,0,0,1-2.349,1.723,8.7,8.7,0,0,1-2.465.675,14.286,14.286,0,0,1-2.5.079q-1.243-.072-2.354-.132a11.748,11.748,0,0,0-2.115.069,3.368,3.368,0,0,0-1.72.7,1.6,1.6,0,0,1-.809.312.943.943,0,0,1-.766-.272l-2.274-2.162a1.144,1.144,0,0,1-.356-.794.918.918,0,0,1,.316-.782,7.215,7.215,0,0,1,2.443-1.58,10.146,10.146,0,0,1,2.554-.59,14.406,14.406,0,0,1,2.525-.019q1.244.1,2.34.145a9.373,9.373,0,0,0,1.983-.109,2.607,2.607,0,0,0,1.483-.782,3.112,3.112,0,0,0,.82-2.78,5.616,5.616,0,0,0-1.844-3.149,5.425,5.425,0,0,0-6.159-1.014,2.32,2.32,0,0,1-.783.2,1.054,1.054,0,0,1-.709-.361l-2.424-2.305a.913.913,0,0,1-.293-.62.855.855,0,0,1,.261-.663,6.368,6.368,0,0,1,2.676-1.528,10.034,10.034,0,0,1,3.524-.41,12.161,12.161,0,0,1,3.8.853A10.735,10.735,0,0,1,447.593,76.149Z" fill="#fff"/></g><path d="M76.813,345.71c3.171,1.928,7.381,2.012,11.351.611l3.047-20.966L77.16,321.766Z" fill="#ffa8a7"/><path d="M99.4,365.811c.341.356.131,2.985-.3,3.586-.461.644-2.84,2.59-7.271,2.669-4.233.075-7.969-.7-10.36-2.4s-3.5-3.5-3.6-5.919.289-4.719-.757-6.63c-.966-1.764-2.289-3.5-2.606-4.449a12.077,12.077,0,0,1-.024-5.17Z" fill="#263238"/><path d="M89.135,345.436a11.394,11.394,0,0,0,.371,2.7,24.491,24.491,0,0,0,2.3,5.424,21.561,21.561,0,0,0,1.625,2.575c1.194,1.587,2.711,2.918,3.983,4.447a8.637,8.637,0,0,1,2.326,5.317c0,3.318-3.649,4.249-6.44,4.592a20.3,20.3,0,0,1-8.958-.934,8.261,8.261,0,0,1-5.695-6.917c-.1-.927,0-1.863-.055-2.793a13.02,13.02,0,0,0-2.262-5.926,17.506,17.506,0,0,1-1.8-3.256c-.752-2.094.063-4.36.724-6.37.571-1.736,1.026-3.829,1.638-3.629-.017.355-.017,1.132-.017,1.132.183.395.624.677.729,1.13a8.038,8.038,0,0,0,.429,1.39,3.608,3.608,0,0,0,1.38,1.7q.164-1.87.326-3.74a1.312,1.312,0,0,1,1.429-1.487,23.529,23.529,0,0,1,7.107-.2,1.306,1.306,0,0,1,.928.467,1.37,1.37,0,0,1,.112.854A31.835,31.835,0,0,0,89.135,345.436Z" fill="#27debf"/><path d="M89.135,345.436a11.394,11.394,0,0,0,.371,2.7,24.491,24.491,0,0,0,2.3,5.424,21.561,21.561,0,0,0,1.625,2.575c1.194,1.587,2.711,2.918,3.983,4.447a8.637,8.637,0,0,1,2.326,5.317c0,3.318-3.649,4.249-6.44,4.592a20.3,20.3,0,0,1-8.958-.934,8.261,8.261,0,0,1-5.695-6.917c-.1-.927,0-1.863-.055-2.793a13.02,13.02,0,0,0-2.262-5.926,17.506,17.506,0,0,1-1.8-3.256c-.752-2.094.063-4.36.724-6.37.571-1.736,1.026-3.829,1.638-3.629-.017.355-.017,1.132-.017,1.132.183.395.624.677.729,1.13a8.038,8.038,0,0,0,.429,1.39,3.608,3.608,0,0,0,1.38,1.7q.164-1.87.326-3.74a1.312,1.312,0,0,1,1.429-1.487,23.529,23.529,0,0,1,7.107-.2,1.306,1.306,0,0,1,.928.467,1.37,1.37,0,0,1,.112.854A31.835,31.835,0,0,0,89.135,345.436Z" opacity="0.2"/><path d="M92.213,354.276c-1.182-.988-3.941-1.149-5.459-1.069a9.163,9.163,0,0,0-4.371,1.275.98.98,0,0,1-1.257-.168h0a.922.922,0,0,1,.168-1.4,9.322,9.322,0,0,1,4.924-1.529c3.728-.062,4.783.633,4.783.633S92.636,353.2,92.213,354.276Z" fill="#455a64"/><path d="M94.863,357.818c-1.5-1-4.542-1.03-6.06-.95a8.605,8.605,0,0,0-4.257,1.363.981.981,0,0,1-1.258-.168h0a.923.923,0,0,1,.169-1.4A9.679,9.679,0,0,1,88.492,355c3.728-.062,4.655.749,4.655.749A3.073,3.073,0,0,1,94.863,357.818Z" fill="#455a64"/><path d="M84.93,347.751a9.228,9.228,0,0,1,4.648.642c.635.4,1.01,1.459.575,1.7a8.578,8.578,0,0,0-4.108-.791,12.287,12.287,0,0,0-4.076.887c-.325.124-.712.3-1.051.466a.881.881,0,0,1-1.2-.446h0a.825.825,0,0,1,.379-1.044A11.928,11.928,0,0,1,84.93,347.751Z" fill="#455a64"/><path d="M116.269,337.823c2.437,6.111,6.261,4.227,12.077.71l.881-20.859L114.418,316.3Z" fill="#ffa8a7"/><path d="M150.693,352.527a4,4,0,0,1-.324,2.935c-.457.84-5.093,3.135-11.141,2.4a25.305,25.305,0,0,1-12.315-5.062c-2.232-1.657-4.625-2.073-7.622-2.406s-5.254-1.378-5.837-2.819.305-3.821.305-3.821Z" fill="#263238"/><path d="M127.132,333.3a13.165,13.165,0,0,0,1.613-.454,1.321,1.321,0,0,1,.9-.055c.38.167.507.633.589,1.04a14.931,14.931,0,0,0,.52,2.672,6.583,6.583,0,0,0,1.607,1.88,27.811,27.811,0,0,0,4.689,3.393c1.925,1.173,3.823,2.1,5.821,3.135,2.038,1.051,4.779,1.774,6.353,2.964,2.3,1.733,2.386,5.783-.413,7.229-2.415,1.249-8.654,2.406-15.016.229-3.465-1.187-7.169-5.157-11.769-5.766-2.925-.389-6.826-.846-8.6-3.178-.646-1.027-.085-3.894.439-7.29.468-3.039.9-7.794,1.864-7.481l.079.921s.88,1.063,1.166,1.412a9.851,9.851,0,0,0,.821.777,14.641,14.641,0,0,0,1.035,1.065,2.961,2.961,0,0,0,1.693.705,1.578,1.578,0,0,0,.852-.184c.5-.286.565-.941.969-1.348a4.768,4.768,0,0,1,1.633-1.061,9.2,9.2,0,0,1,2.653-.541C126.812,333.348,126.976,333.326,127.132,333.3Z" fill="#27debf"/><path d="M127.132,333.3a13.165,13.165,0,0,0,1.613-.454,1.321,1.321,0,0,1,.9-.055c.38.167.507.633.589,1.04a14.931,14.931,0,0,0,.52,2.672,6.583,6.583,0,0,0,1.607,1.88,27.811,27.811,0,0,0,4.689,3.393c1.925,1.173,3.823,2.1,5.821,3.135,2.038,1.051,4.779,1.774,6.353,2.964,2.3,1.733,2.386,5.783-.413,7.229-2.415,1.249-8.654,2.406-15.016.229-3.465-1.187-7.169-5.157-11.769-5.766-2.925-.389-6.826-.846-8.6-3.178-.646-1.027-.085-3.894.439-7.29.468-3.039.9-7.794,1.864-7.481l.079.921s.88,1.063,1.166,1.412a9.851,9.851,0,0,0,.821.777,14.641,14.641,0,0,0,1.035,1.065,2.961,2.961,0,0,0,1.693.705,1.578,1.578,0,0,0,.852-.184c.5-.286.565-.941.969-1.348a4.768,4.768,0,0,1,1.633-1.061,9.2,9.2,0,0,1,2.653-.541C126.812,333.348,126.976,333.326,127.132,333.3Z" opacity="0.2"/><path d="M134.4,340.029a2.728,2.728,0,0,0-2.091-1.569c-1.323-.32-3.736.538-5.269,1.668a1.1,1.1,0,0,0,.061,1.819h0a1.1,1.1,0,0,0,1.259-.072A8.394,8.394,0,0,1,134.4,340.029Z" fill="#455a64"/><path d="M138.413,342.572a3.142,3.142,0,0,0-2.5-1.463,9.791,9.791,0,0,0-5.764,1.81,1.074,1.074,0,0,0,.053,1.759h0a1.049,1.049,0,0,0,1.213-.075A8.409,8.409,0,0,1,138.413,342.572Z" fill="#455a64"/><path d="M142.874,344.909a3.517,3.517,0,0,0-2.6-1.34,9.406,9.406,0,0,0-5.526,1.844,1.073,1.073,0,0,0,.053,1.758h0a1.046,1.046,0,0,0,1.212-.074A8.034,8.034,0,0,1,142.874,344.909Z" fill="#455a64"/><path d="M76.416,289.41c.45-10.065,2.593-15.314,2.9-18.1,0,0,.822-55.392,2.167-72.206l49.6-2.109c.732,17.956,1.392,66.364,1.007,72.76-.368,6.126-2.862,59.3-2.862,59.3-7.014,2.184-14.467-.965-14.467-.965s-4.161-30.244-4.845-36.914a85.341,85.341,0,0,1,.469-18.01l-3.17-43.069s-3.832,33.393-5.726,45.969c-2.17,14.411-11.463,59.076-11.463,59.076-6.692,1.675-13.212-1.218-13.212-1.218S75.762,304.005,76.416,289.41Z" fill="#455a64"/><path d="M107.213,230.1l.938-5.932c2.89-.429,10.206-5,14.541-8.993a34.461,34.461,0,0,1-12.161,11.208l-.147,46.785Z" fill="#37474f"/><path d="M127.55,167.811c-3.375-7.692-9.169-20.644-9.169-20.644l-1.475-21.047a57.521,57.521,0,0,1,6.411.573c3.125.488,8.069,3.47,10.337,9.086,1.684,4.171,10.465,29.615,10.465,29.615l15.3-8.066c3.916-2.492,5.305-6.615,7.807-8.958s5.032-2.741,7.767-4.649,3.869-3.44,4.564-1.535-2.4,4.841-2.96,5.574-3.613,2.293.234,2.493,11.609-3.54,13.467-4.181,1.7,1.566.73,2.934-1.072,5.392-2.693,7.649c-1.72,2.4-2.648,3.425-6.335,4.851-3.435,1.328-10.539,1.662-14.2,3.777s-12.524,10.121-18.429,14.229c-7.931,5.516-12.394,5.877-15.5,1.479S128.738,170.519,127.55,167.811Z" fill="#ffa8a7"/><path d="M114.841,125.722c5.194-.4,11.325-.08,14.722,3.021,2.7,2.468,3.724,4.046,6.745,12.533,2.041,5.731,6.277,18.93,6.277,18.93a27.328,27.328,0,0,0-15.049,9.2l-9.747-21.91Z" fill="#f5f5f5"/><path d="M144.119,165.394a13,13,0,0,0-6.466,4.963s.365-4.024,5.974-6.386Z" fill="#f28f8f"/><path d="M102.392,124.784a24.511,24.511,0,0,0-7.309.8c-4.57,1.208-12.761,3.507-12.761,3.507-2.6,1.355-3.615,5.856-4.2,8.445-1.882,8.284,3.043,27.036,3.755,34.291s-.844,29.622-.844,29.622c5.592,6.474,35.877,10.773,50.627,0,0,0,.643-51.27-.811-58.631-2.2-11.131-5.462-16.424-16.973-17.093Z" fill="#f5f5f5"/><path d="M108.864,97.275l-3.291,1.816a1.973,1.973,0,0,1,.767-2.62A1.835,1.835,0,0,1,108.864,97.275Z" fill="#263238"/><path d="M123.165,98.6l-3-2.312a1.818,1.818,0,0,1,2.608-.4A1.989,1.989,0,0,1,123.165,98.6Z" fill="#263238"/><path d="M93.74,86.805S90.2,87.3,88.9,89.965c-1.128,2.319-.719,7.918.784,14.02a56.372,56.372,0,0,0,3.8,11.467,4.66,4.66,0,0,0,2.7,2.164l-.176-7.241-.262-5.045S99,100.907,99.35,97.283c.458-4.665-.524-6.574-.524-6.574Z" fill="#263238"/><path d="M99.453,93.811a13.52,13.52,0,0,0,13.564,13.477c7.468-.024,13.065-6.15,13.041-13.617A13.109,13.109,0,0,0,112.93,80.247,13.521,13.521,0,0,0,99.453,93.811Z" fill="#263238"/><path d="M95.947,104.524c-1.217,1.055-2.208-1.675-3.232-2.74s-4.36-2.513-6.011.994c-1.681,3.575,1.456,8.6,4.022,9.586a3.659,3.659,0,0,0,4.358-1.335v16.046c3.848,6.932,10.639,6.718,14.264,6.328s4.423-4.162,1.773-7.2l-.029-4.962a28.45,28.45,0,0,0,6.094.293c3.322-.524,5.059-3.031,6.056-6.632,1.6-5.785,2.244-15.506.02-26.737-3.722-2.879-16.627-2.4-24.436,2.548C99.4,100.67,97.163,103.469,95.947,104.524Z" fill="#ffa8a7"/><path d="M123.878,82.492a24.506,24.506,0,0,0,.671-6.368c-.022-.848-.206-1.866-.993-2.179-.764-.3-1.568.257-2.249.717-2.876,1.943-6.461,2.49-9.926,2.68-5.982.328-15.175-.062-18.225,6.506-.846,1.821-.992,3.74.68,5a11.522,11.522,0,0,0,4.99,1.862c3.031.527,6.037,1.195,9.089,1.6,3.107.412,6.731.816,9.787-.127,2.565-.791,5.173-1.471,7.09-3.514a9.8,9.8,0,0,0,2.622-6.54c0-.341-.079-.771-.411-.853a.8.8,0,0,0-.5.1Z" fill="#263238"/><path d="M111.092,121.237s-7.425-1.47-10.024-2.841a8.541,8.541,0,0,1-3.6-3.536,11.682,11.682,0,0,0,2.051,4.178c1.9,2.419,11.577,4.174,11.577,4.174Z" fill="#f28f8f"/><path d="M109.6,102.195a1.667,1.667,0,1,1-1.672-1.73A1.693,1.693,0,0,1,109.6,102.195Z" fill="#263238"/><path d="M112,113.742a1.567,1.567,0,1,1-1.571-1.627A1.593,1.593,0,0,1,112,113.742Z" fill="#b16668"/><path d="M107.5,96.94l-3.444,2.169a2.136,2.136,0,0,1,.665-2.88A1.986,1.986,0,0,1,107.5,96.94Z" fill="#263238"/><path d="M119.642,94.819l3.619,1.617a1.9,1.9,0,0,1-2.556,1.045A2.081,2.081,0,0,1,119.642,94.819Z" fill="#263238"/><path d="M121.55,101.691a1.611,1.611,0,1,1-1.615-1.672A1.636,1.636,0,0,1,121.55,101.691Z" fill="#263238"/><path d="M113.372,98.869l.593,11.117,5.272-1.4Z" fill="#f28f8f"/><path d="M19.971,144.671c1.729.934,8.778,5.888,12.606,6.317,1.622.182,2.062-.079,2-.5-.088-.575-1.11-1.451-1.359-1.92-.433-.813-3.011-4.214-2.014-5.981s1.866-.071,4.253,2.257,4.82,3.133,6.907,5.852,2.786,7.013,6.244,10.11l13.786,9.4s6.419-29.791,9.236-33.3c2.958-3.686,15.877,4.353,13.176,16.079s-8.831,32.069-13.086,36.065c-2.752,2.586-8.567.144-15.819-6.306-5.727-5.094-13.582-12.774-16.854-15.457s-10.226-4.17-13.4-6.04c-3.406-2.006-4.153-3.174-5.461-5.818-1.233-2.491-.682-6.478-1.412-7.985S18.242,143.737,19.971,144.671Z" fill="#ffa8a7"/><path d="M82.322,129.087c4.415,2.766,4.639,6.787,4.858,11.382a47.524,47.524,0,0,1-2.518,15.839c-1.875,5.787-4.846,16.362-4.846,16.362s-11.54.267-17.478-4.863c0,0,2.708-11.394,4.62-19.962S71.194,130.058,82.322,129.087Z" fill="#f5f5f5"/><path d="M62.391,170.207c3.145,1.75,4.993,5.51,5.572,7a11.057,11.057,0,0,0-5.247-8.528Z" fill="#f28f8f"/><path d="M182.111,386.344,259.29,430.9V447.32l-77.179-44.56Z" fill="#27debf"/><path d="M182.111,386.344,259.29,430.9V447.32l-77.179-44.56Z" opacity="0.35"/><path d="M336.469,386.344,259.29,430.9V447.32l77.179-44.56Z" fill="#27debf"/><path d="M336.469,386.344,259.29,430.9V447.32l77.179-44.56Z" opacity="0.2"/><path d="M336.469,386.344l-77.18-44.559-77.179,44.559L259.29,430.9Z" fill="#27debf"/><path d="M336.469,386.344l-77.18-44.559-77.179,44.559L259.29,430.9Z" opacity="0.15"/><path d="M259.29,430.9v-4.69l-69.057-39.869h-8.123Z" opacity="0.1"/><path d="M259.289,341.785v4.691l69.054,39.868h8.124Z" opacity="0.1"/><path d="M336.469,386.344h-8.124L259.29,426.213v4.69Z" fill="#27debf"/><path d="M259.289,341.785v4.691l-69.057,39.868h-8.123Z" fill="#27debf"/><path d="M259.568,367.036l33.164,19.148c2.482,1.432,2.482,3.755,0,5.188L268,405.653a9.937,9.937,0,0,1-8.987,0l-33.164-19.148c-2.481-1.433-2.481-3.756,0-5.188l24.734-14.281A9.931,9.931,0,0,1,259.568,367.036Z" fill="#37474f"/><path d="M268,405.653l23.917-13.809-32.347-18.676a9.937,9.937,0,0,0-8.987,0l-23.916,13.809,32.346,18.676A9.937,9.937,0,0,0,268,405.653Z" fill="#455a64"/><path d="M239.545,386.372,254.052,378a1.92,1.92,0,0,1,1.733,0l1.785,1.025a.526.526,0,0,1,0,1l-14.507,8.377a1.92,1.92,0,0,1-1.733,0l-1.785-1.026A.526.526,0,0,1,239.545,386.372Z" fill="#263238"/><path d="M261.214,398.9l14.508-8.376a1.92,1.92,0,0,1,1.733,0l1.785,1.025a.526.526,0,0,1,0,1l-14.507,8.377a1.92,1.92,0,0,1-1.733,0l-1.785-1.026A.526.526,0,0,1,261.214,398.9Z" fill="#263238"/><path d="M225.756,418.773a9.664,9.664,0,0,0-4.373-7.573,3.059,3.059,0,0,0-3.09-.3c-.159.093-1.732,1.038-1.894,1.132a3.066,3.066,0,0,0-1.277,2.822,9.665,9.665,0,0,0,4.373,7.573,3.055,3.055,0,0,0,3.092.3c.159-.093,1.725-1.035,1.885-1.127A3.062,3.062,0,0,0,225.756,418.773Z" fill="#27debf"/><path d="M219.495,412.329a9.668,9.668,0,0,1,4.372,7.574c0,2.788-1.958,3.918-4.372,2.524a9.665,9.665,0,0,1-4.373-7.573C215.122,412.065,217.08,410.935,219.495,412.329Z" opacity="0.1"/><path d="M168.755,444.273a28.518,28.518,0,0,1-14-3.4l-51.2-29.56c-4.115-2.376-6.381-5.655-6.381-9.233s2.267-6.856,6.381-9.232l59.322-34.25c6.5-3.752,11.99-13.263,11.99-20.768V150.1a2,2,0,0,1,4,0V337.833c0,9.059-6.145,19.7-13.99,24.233l-59.322,34.25c-2.825,1.631-4.381,3.679-4.381,5.767s1.556,4.137,4.381,5.768l51.2,29.56c6.612,3.817,17.371,3.818,23.983,0l37.752-21.785a2,2,0,0,1,2,3.465l-37.752,21.784A28.5,28.5,0,0,1,168.755,444.273Z" fill="#37474f"/><path d="M78.915,78.31a1.073,1.073,0,0,1,.841-1.244l4.869-.938a1.074,1.074,0,0,1,1.244.842l.752,3.9a1.078,1.078,0,0,1-.842,1.244l-4.869.938a1.024,1.024,0,0,1-.794-.168,1.014,1.014,0,0,1-.449-.674ZM74.858,57.254a1.074,1.074,0,0,1,.84-1.244l4.869-.938a1.078,1.078,0,0,1,1.245.842L85.02,72.566a1.076,1.076,0,0,1-.842,1.244l-4.869.937a1.071,1.071,0,0,1-1.243-.84Z" fill="#27debf"/><path d="M70.8,94.628a1.072,1.072,0,0,1,.081-1.5L74.57,89.82a1.079,1.079,0,0,1,1.5.081l2.651,2.962a1.074,1.074,0,0,1-.083,1.5L74.946,97.67a1.078,1.078,0,0,1-1.5-.081ZM56.489,78.655a1.076,1.076,0,0,1,.081-1.5l3.694-3.308a1.075,1.075,0,0,1,1.5.081L73.078,86.562a1.075,1.075,0,0,1-.083,1.5L69.3,91.37a1.073,1.073,0,0,1-1.5-.084Z" fill="#27debf"/><g opacity="0.6"><path d="M70.8,94.628a1.072,1.072,0,0,1,.081-1.5L74.57,89.82a1.079,1.079,0,0,1,1.5.081l2.651,2.962a1.074,1.074,0,0,1-.083,1.5L74.946,97.67a1.078,1.078,0,0,1-1.5-.081ZM56.489,78.655a1.076,1.076,0,0,1,.081-1.5l3.694-3.308a1.075,1.075,0,0,1,1.5.081L73.078,86.562a1.075,1.075,0,0,1-.083,1.5L69.3,91.37a1.073,1.073,0,0,1-1.5-.084Z" fill="#fff"/></g><path d="M166.041,48.03a7.142,7.142,0,0,1,4.766,1.445,5.252,5.252,0,0,1,1.7,4.234,5.329,5.329,0,0,1-1.7,4.26,7.058,7.058,0,0,1-4.766,1.471h-4.057v5.653a.693.693,0,0,1-.685.685h-2.053a.693.693,0,0,1-.685-.685V48.714a.693.693,0,0,1,.685-.684Zm-4.057,8.24h3.93a4.13,4.13,0,0,0,2.307-.57,2.21,2.21,0,0,0,.862-1.991,2.144,2.144,0,0,0-.862-1.965,4.281,4.281,0,0,0-2.307-.545h-3.93Z" fill="#fff"/><path d="M174.762,55.839a3.53,3.53,0,0,1,.47-1.141,4.312,4.312,0,0,1,1.039-1.141,5.621,5.621,0,0,1,1.648-.874,6.835,6.835,0,0,1,2.269-.343,7.414,7.414,0,0,1,2.333.343,5.055,5.055,0,0,1,1.787,1,4.344,4.344,0,0,1,1.154,1.661,6.08,6.08,0,0,1,.406,2.294v7.454a.7.7,0,0,1-.685.685h-1.927a.693.693,0,0,1-.684-.685v-.837a4.274,4.274,0,0,1-1.534,1.256,5.521,5.521,0,0,1-2.548.519,6.082,6.082,0,0,1-1.952-.291,4.01,4.01,0,0,1-1.446-.824,3.69,3.69,0,0,1-.9-1.255,3.908,3.908,0,0,1-.316-1.585,3.3,3.3,0,0,1,1.242-2.738,7.2,7.2,0,0,1,3.321-1.344l4.133-.71a1.6,1.6,0,0,0-.685-1.47,3.122,3.122,0,0,0-1.7-.431,2.25,2.25,0,0,0-.988.177,2.97,2.97,0,0,0-.685.482,1.513,1.513,0,0,1-.418.279,1.112,1.112,0,0,1-.419.076h-2.357a.642.642,0,0,1-.432-.152A.4.4,0,0,1,174.762,55.839ZM179,62.989a4.524,4.524,0,0,0,1.534-.241,3.426,3.426,0,0,0,1.128-.646,2.7,2.7,0,0,0,.684-.913,2.5,2.5,0,0,0,.229-1.04V59.9l-3.449.608a3.586,3.586,0,0,0-1.5.52,1.1,1.1,0,0,0-.456.925.829.829,0,0,0,.545.786A3.012,3.012,0,0,0,179,62.989Z" fill="#fff"/><path d="M195,68.314a3.866,3.866,0,0,0,1.089-.165,3.075,3.075,0,0,0,1.015-.52,2.8,2.8,0,0,0,.748-.9,2.682,2.682,0,0,0,.291-1.281V64.51a4.424,4.424,0,0,1-.532.494,4.145,4.145,0,0,1-.8.5,5.435,5.435,0,0,1-1.09.38,5.959,5.959,0,0,1-1.407.152,5.216,5.216,0,0,1-2.295-.494,5.423,5.423,0,0,1-1.749-1.318,6.328,6.328,0,0,1-1.14-1.9,6.971,6.971,0,0,1-.47-2.244q-.025-.38-.026-.887t.026-.888a6.97,6.97,0,0,1,.47-2.243,6.34,6.34,0,0,1,1.14-1.9,5.44,5.44,0,0,1,1.749-1.319,5.23,5.23,0,0,1,2.295-.494,5.959,5.959,0,0,1,1.407.152,5.434,5.434,0,0,1,1.09.381,4.193,4.193,0,0,1,.8.494,4.424,4.424,0,0,1,.532.494v-.583a.691.691,0,0,1,.685-.684h1.927a.69.69,0,0,1,.684.684V65.169a5.946,5.946,0,0,1-1.711,4.627A6.758,6.758,0,0,1,195,71.356a8.055,8.055,0,0,1-2.4-.342,6.864,6.864,0,0,1-1.914-.913,4.947,4.947,0,0,1-1.293-1.293,3.009,3.009,0,0,1-.532-1.484.561.561,0,0,1,.19-.481.7.7,0,0,1,.494-.2h1.724a.851.851,0,0,1,.609.241c.168.16.313.308.431.443a2.474,2.474,0,0,0,.9.71A4.288,4.288,0,0,0,195,68.314Zm-3.043-9.838a6.74,6.74,0,0,0,0,1.42,3.353,3.353,0,0,0,1.014,2.37,3.168,3.168,0,0,0,2.105.723,3.083,3.083,0,0,0,2.092-.736,3.022,3.022,0,0,0,.975-2.1,9.128,9.128,0,0,0,0-1.927,3.07,3.07,0,0,0-.975-2.079,3.024,3.024,0,0,0-2.092-.76,3.172,3.172,0,0,0-2.105.722A3.359,3.359,0,0,0,191.953,58.476Z" fill="#fff"/><path d="M204.274,59.186a8.136,8.136,0,0,1,.432-2.675,6.426,6.426,0,0,1,1.242-2.18,5.805,5.805,0,0,1,1.965-1.458,6.061,6.061,0,0,1,2.573-.533,6.2,6.2,0,0,1,2.573.52,6.028,6.028,0,0,1,1.966,1.394,6.207,6.207,0,0,1,1.255,2.054,6.977,6.977,0,0,1,.443,2.472v1.141a.692.692,0,0,1-.684.684h-8.468a2.109,2.109,0,0,0,.24,1.027,2.269,2.269,0,0,0,.647.748,2.857,2.857,0,0,0,.938.457,3.963,3.963,0,0,0,1.09.152,4.354,4.354,0,0,0,1.318-.165,2.774,2.774,0,0,0,.837-.418,2.587,2.587,0,0,1,.456-.279,1.248,1.248,0,0,1,.483-.076h2.028a.706.706,0,0,1,.494.2.564.564,0,0,1,.19.482,2.086,2.086,0,0,1-.393.913,4.341,4.341,0,0,1-1.1,1.09,7.1,7.1,0,0,1-1.812.913,7.492,7.492,0,0,1-2.5.38,6.455,6.455,0,0,1-2.573-.494,5.473,5.473,0,0,1-1.965-1.407,6.3,6.3,0,0,1-1.242-2.168A8.456,8.456,0,0,1,204.274,59.186Zm6.212-3.8a3.289,3.289,0,0,0-1.255.215,2.783,2.783,0,0,0-.875.558,2.49,2.49,0,0,0-.545.761,2.8,2.8,0,0,0-.24.8H213.3a4.351,4.351,0,0,0-.19-.8,2.082,2.082,0,0,0-.456-.761,2.352,2.352,0,0,0-.837-.558A3.523,3.523,0,0,0,210.486,55.383Z" fill="#fff"/><path d="M237.64,65.093a.691.691,0,0,1-.684.685h-1.927a.693.693,0,0,1-.685-.685v-6.44a3.862,3.862,0,0,0-.71-2.434,2.59,2.59,0,0,0-2.18-.912,2.631,2.631,0,0,0-2.118.912,3.643,3.643,0,0,0-.772,2.434v6.44a.693.693,0,0,1-.685.685h-1.927a.693.693,0,0,1-.685-.685V53.278a.692.692,0,0,1,.685-.684h1.927a.692.692,0,0,1,.685.684v.583a5.661,5.661,0,0,1,1.546-1.09,4.776,4.776,0,0,1,2.1-.431,6.142,6.142,0,0,1,2.586.482,4.45,4.45,0,0,1,1.674,1.293,4.963,4.963,0,0,1,.9,1.889,9.459,9.459,0,0,1,.266,2.269Z" fill="#fff"/><path d="M246.819,52.34a7.027,7.027,0,0,1,2.522.431,6,6,0,0,1,1.952,1.192,5.912,5.912,0,0,1,1.319,1.775,5.784,5.784,0,0,1,.571,2.18,5.456,5.456,0,0,1,.025.583v1.407a5.3,5.3,0,0,1-.025.571,6.326,6.326,0,0,1-.584,2.18,5.573,5.573,0,0,1-1.306,1.762,6.112,6.112,0,0,1-1.952,1.18,7.614,7.614,0,0,1-5.045,0,6.128,6.128,0,0,1-1.953-1.18,5.585,5.585,0,0,1-1.305-1.762,6.281,6.281,0,0,1-.583-2.18q-.025-.228-.038-.571t-.013-.7q0-.354.013-.71c.008-.236.021-.431.038-.583a5.783,5.783,0,0,1,.57-2.18,5.943,5.943,0,0,1,1.318-1.775,6.015,6.015,0,0,1,1.953-1.192A7.029,7.029,0,0,1,246.819,52.34Zm3.067,5.7a3.324,3.324,0,0,0-.367-1.306,2.468,2.468,0,0,0-.723-.824,2.6,2.6,0,0,0-.938-.418,4.8,4.8,0,0,0-2.079,0,2.6,2.6,0,0,0-.938.418,2.454,2.454,0,0,0-.722.824,3.29,3.29,0,0,0-.368,1.306q-.026.2-.039.507c-.007.2-.012.414-.012.634s.005.435.012.646.022.376.039.495a3.28,3.28,0,0,0,.368,1.305,2.458,2.458,0,0,0,.722.825,2.613,2.613,0,0,0,.938.418,4.8,4.8,0,0,0,2.079,0,2.621,2.621,0,0,0,.938-.418,2.472,2.472,0,0,0,.723-.825,3.313,3.313,0,0,0,.367-1.305,3.679,3.679,0,0,0,.026-.495v-1.28A4.162,4.162,0,0,0,249.886,58.045Z" fill="#fff"/><path d="M260.382,61.011a1.819,1.819,0,0,0,.418,1.255,2.047,2.047,0,0,0,1.56.469h1.547a.693.693,0,0,1,.684.685v1.673a.693.693,0,0,1-.684.685H262.03a5.284,5.284,0,0,1-3.663-1.154,4.525,4.525,0,0,1-1.281-3.537V55.636h-1.673a.693.693,0,0,1-.685-.684V53.278a.692.692,0,0,1,.685-.684h1.673V48.461a.693.693,0,0,1,.685-.685H259.7a.693.693,0,0,1,.684.685v4.133h3.271a.692.692,0,0,1,.684.684v1.674a.693.693,0,0,1-.684.684h-3.271Z" fill="#fff"/><path d="M276.99,52.594h3.524a.692.692,0,0,1,.685.684v1.674a.693.693,0,0,1-.685.684H276.99v9.457a.693.693,0,0,1-.685.685h-1.927a.691.691,0,0,1-.684-.685V55.636H272.02a.7.7,0,0,1-.685-.684V53.278a.693.693,0,0,1,.685-.684h1.674V51.453a5.378,5.378,0,0,1,.354-2.067A3.449,3.449,0,0,1,275.063,48a4,4,0,0,1,1.584-.76,8.649,8.649,0,0,1,2.066-.228h2.054a.693.693,0,0,1,.685.684v1.674a.693.693,0,0,1-.685.684h-1.8a2.627,2.627,0,0,0-1.47.342,1.471,1.471,0,0,0-.507,1.306Z" fill="#fff"/><path d="M288.957,52.34a7.027,7.027,0,0,1,2.522.431,6.01,6.01,0,0,1,1.952,1.192,5.909,5.909,0,0,1,1.318,1.775,6.609,6.609,0,0,1,.6,2.763v1.407a5.615,5.615,0,0,1-.024.571,6.348,6.348,0,0,1-.584,2.18,5.588,5.588,0,0,1-1.306,1.762,6.124,6.124,0,0,1-1.952,1.18,7.614,7.614,0,0,1-5.045,0,6.128,6.128,0,0,1-1.953-1.18,5.6,5.6,0,0,1-1.306-1.762,6.325,6.325,0,0,1-.583-2.18q-.024-.228-.038-.571t-.013-.7q0-.354.013-.71c.009-.236.022-.431.038-.583a5.8,5.8,0,0,1,.571-2.18,5.943,5.943,0,0,1,1.318-1.775,6.015,6.015,0,0,1,1.953-1.192A7.029,7.029,0,0,1,288.957,52.34Zm3.067,5.7a3.324,3.324,0,0,0-.367-1.306,2.479,2.479,0,0,0-.723-.824A2.6,2.6,0,0,0,290,55.5a4.8,4.8,0,0,0-2.08,0,2.6,2.6,0,0,0-.937.418,2.467,2.467,0,0,0-.723.824,3.323,3.323,0,0,0-.368,1.306c-.016.135-.029.3-.038.507s-.013.414-.013.634.005.435.013.646.022.376.038.495a3.313,3.313,0,0,0,.368,1.305,2.471,2.471,0,0,0,.723.825,2.616,2.616,0,0,0,.937.418,4.8,4.8,0,0,0,2.08,0,2.621,2.621,0,0,0,.938-.418,2.482,2.482,0,0,0,.723-.825,3.313,3.313,0,0,0,.367-1.305,3.884,3.884,0,0,0,.025-.495v-1.28A4.4,4.4,0,0,0,292.024,58.045Z" fill="#fff"/><path d="M298.11,53.278a.69.69,0,0,1,.684-.684h1.927a.692.692,0,0,1,.685.684v6.44a4.132,4.132,0,0,0,.646,2.434,2.412,2.412,0,0,0,2.117.913,2.446,2.446,0,0,0,2.054-.913,3.862,3.862,0,0,0,.71-2.434v-6.44a.69.69,0,0,1,.685-.684h1.926a.692.692,0,0,1,.685.684V65.093a.693.693,0,0,1-.685.685h-1.926a.691.691,0,0,1-.685-.685V64.51a6.326,6.326,0,0,1-1.445,1.053,4.3,4.3,0,0,1-2.079.468,5.968,5.968,0,0,1-2.561-.481,4.256,4.256,0,0,1-1.623-1.294,5.02,5.02,0,0,1-.862-1.888,9.886,9.886,0,0,1-.253-2.269Z" fill="#fff"/><path d="M326.1,65.093a.691.691,0,0,1-.685.685h-1.926a.693.693,0,0,1-.685-.685v-6.44a3.862,3.862,0,0,0-.71-2.434,2.59,2.59,0,0,0-2.18-.912,2.631,2.631,0,0,0-2.118.912,3.643,3.643,0,0,0-.772,2.434v6.44a.693.693,0,0,1-.685.685h-1.927a.693.693,0,0,1-.685-.685V53.278a.692.692,0,0,1,.685-.684h1.927a.691.691,0,0,1,.685.684v.583a5.661,5.661,0,0,1,1.546-1.09,4.776,4.776,0,0,1,2.1-.431,6.142,6.142,0,0,1,2.586.482,4.45,4.45,0,0,1,1.674,1.293,4.979,4.979,0,0,1,.9,1.889,9.511,9.511,0,0,1,.265,2.269Z" fill="#fff"/><path d="M334.542,52.34a5.962,5.962,0,0,1,1.408.152,5.457,5.457,0,0,1,1.09.381,4.185,4.185,0,0,1,.8.494,4.441,4.441,0,0,1,.533.494v-5.4a.693.693,0,0,1,.684-.685h1.927a.691.691,0,0,1,.684.685V65.093a.691.691,0,0,1-.684.685h-1.927a.693.693,0,0,1-.684-.685V64.51a4.441,4.441,0,0,1-.533.494,4.137,4.137,0,0,1-.8.5,5.458,5.458,0,0,1-1.09.38,5.962,5.962,0,0,1-1.408.152,5.212,5.212,0,0,1-2.294-.494,5.427,5.427,0,0,1-1.75-1.318,6.328,6.328,0,0,1-1.14-1.9,7,7,0,0,1-.47-2.244c-.016-.253-.025-.549-.025-.887s.009-.634.025-.888a7,7,0,0,1,.47-2.243,6.34,6.34,0,0,1,1.14-1.9,5.444,5.444,0,0,1,1.75-1.319A5.226,5.226,0,0,1,334.542,52.34Zm-2.358,6.136a6.742,6.742,0,0,0,0,1.42,3.353,3.353,0,0,0,1.015,2.37,3.163,3.163,0,0,0,2.1.723,3.081,3.081,0,0,0,2.092-.736,3.023,3.023,0,0,0,.976-2.1,9.311,9.311,0,0,0,0-1.927,3.071,3.071,0,0,0-.976-2.079,3.022,3.022,0,0,0-2.092-.76,3.168,3.168,0,0,0-2.1.722A3.36,3.36,0,0,0,332.184,58.476Z" fill="#fff"/><path d="M196.436,90.761a.637.637,0,0,1,.628.628v2.463a.639.639,0,0,1-.628.628H185.421a.637.637,0,0,1-.627-.628V78.84a.635.635,0,0,1,.627-.627h10.83a.633.633,0,0,1,.626.627V81.3a.633.633,0,0,1-.626.627h-7.158v2.51h6.646a.635.635,0,0,1,.628.627v2.463a.635.635,0,0,1-.628.628h-6.646v2.6Z" fill="#27debf"/><path d="M206.661,78.213a10.566,10.566,0,0,1,2.742.325,5.848,5.848,0,0,1,2.056.976,4.24,4.24,0,0,1,1.3,1.662,5.7,5.7,0,0,1,.453,2.358,5.374,5.374,0,0,1-.719,2.894,4.6,4.6,0,0,1-2.045,1.754l2.881,5.53a.579.579,0,0,1,.07.256.517.517,0,0,1-.512.512h-3.16a.88.88,0,0,1-.662-.209,2.119,2.119,0,0,1-.314-.419l-2.58-4.973h-2.137v4.973a.637.637,0,0,1-.628.628h-3.044a.635.635,0,0,1-.627-.628V78.84a.633.633,0,0,1,.627-.627Zm-2.626,7.041h2.626a3.177,3.177,0,0,0,1.615-.372,1.742,1.742,0,0,0,0-2.7,3.177,3.177,0,0,0-1.615-.372h-2.626Z" fill="#27debf"/><path d="M222.811,78.213a10.561,10.561,0,0,1,2.742.325,5.861,5.861,0,0,1,2.057.976,4.249,4.249,0,0,1,1.3,1.662,5.721,5.721,0,0,1,.453,2.358,5.374,5.374,0,0,1-.72,2.894,4.6,4.6,0,0,1-2.045,1.754l2.881,5.53a.579.579,0,0,1,.07.256.516.516,0,0,1-.511.512h-3.161a.881.881,0,0,1-.662-.209,2.119,2.119,0,0,1-.314-.419l-2.579-4.973h-2.138v4.973a.637.637,0,0,1-.628.628h-3.044a.637.637,0,0,1-.627-.628V78.84a.635.635,0,0,1,.627-.627Zm-2.626,7.041h2.626a3.177,3.177,0,0,0,1.615-.372,1.74,1.74,0,0,0,0-2.7,3.177,3.177,0,0,0-1.615-.372h-2.626Z" fill="#27debf"/><path d="M231.5,84.278a7.046,7.046,0,0,1,.569-2.452,5.893,5.893,0,0,1,1.418-2,6.828,6.828,0,0,1,2.23-1.348,9.413,9.413,0,0,1,6.054,0,6.8,6.8,0,0,1,2.242,1.348,5.893,5.893,0,0,1,1.418,2A7.045,7.045,0,0,1,246,84.278c.032.666.046,1.364.046,2.092s-.014,1.409-.046,2.045a7.04,7.04,0,0,1-.569,2.451,6,6,0,0,1-1.418,2.01,6.528,6.528,0,0,1-2.242,1.348,9.632,9.632,0,0,1-6.054,0,6.549,6.549,0,0,1-2.23-1.348,6,6,0,0,1-1.418-2.01,7.04,7.04,0,0,1-.569-2.451c-.032-.636-.046-1.317-.046-2.045S231.47,84.944,231.5,84.278Zm10.2,4.02c.014-.278.03-.589.045-.929s.024-.689.024-1.046-.008-.7-.024-1.034-.031-.631-.045-.9a3.652,3.652,0,0,0-.245-1.069,2.516,2.516,0,0,0-.557-.848,2.568,2.568,0,0,0-.895-.569,3.87,3.87,0,0,0-2.509,0,2.549,2.549,0,0,0-.9.569,2.521,2.521,0,0,0-.559.848,3.619,3.619,0,0,0-.243,1.069q-.046.4-.058.9t-.012,1.034c0,.357,0,.705.012,1.046s.027.651.058.929a3.107,3.107,0,0,0,.8,1.929,2.788,2.788,0,0,0,2.149.767,2.752,2.752,0,0,0,2.138-.767A3.265,3.265,0,0,0,241.7,88.3Z" fill="#27debf"/><path d="M255.646,78.213a10.561,10.561,0,0,1,2.742.325,5.861,5.861,0,0,1,2.057.976,4.249,4.249,0,0,1,1.3,1.662,5.721,5.721,0,0,1,.453,2.358,5.365,5.365,0,0,1-.72,2.894,4.6,4.6,0,0,1-2.045,1.754l2.881,5.53a.579.579,0,0,1,.07.256.516.516,0,0,1-.512.512h-3.16a.881.881,0,0,1-.662-.209,2.119,2.119,0,0,1-.314-.419l-2.579-4.973H253.02v4.973a.635.635,0,0,1-.628.628h-3.044a.637.637,0,0,1-.627-.628V78.84a.635.635,0,0,1,.627-.627Zm-2.626,7.041h2.626a3.174,3.174,0,0,0,1.615-.372,1.74,1.74,0,0,0,0-2.7,3.174,3.174,0,0,0-1.615-.372H253.02Z" fill="#27debf"/><path d="M277.465,94.48a.637.637,0,0,1-.627-.628v-2.37h-7.32a.635.635,0,0,1-.627-.627V88.391a1.6,1.6,0,0,1,.3-1l6.948-8.761a1.223,1.223,0,0,1,.384-.337,1.146,1.146,0,0,1,.476-.081h3.509a.633.633,0,0,1,.627.627v8.924h2a.633.633,0,0,1,.628.627v2.464a.633.633,0,0,1-.628.627h-2v2.37a.635.635,0,0,1-.627.628Zm-.51-6.716V83.488l-3.393,4.276Z" fill="#27debf"/><path d="M292.5,77.98a7.921,7.921,0,0,1,3,.512,5.942,5.942,0,0,1,2.08,1.371,5.522,5.522,0,0,1,1.231,2.01,8.6,8.6,0,0,1,.477,2.4q.046,1,.047,2.092t-.047,2.045a8.588,8.588,0,0,1-.477,2.4,5.517,5.517,0,0,1-1.231,2.011A5.942,5.942,0,0,1,295.5,94.2a9.05,9.05,0,0,1-6,0,5.942,5.942,0,0,1-2.08-1.371,5.531,5.531,0,0,1-1.231-2.011,8.588,8.588,0,0,1-.477-2.4q-.046-.954-.046-2.045t.046-2.092a8.6,8.6,0,0,1,.477-2.4,5.535,5.535,0,0,1,1.231-2.01,5.942,5.942,0,0,1,2.08-1.371A7.932,7.932,0,0,1,292.5,77.98ZM294.987,88.3q.092-1.975,0-3.9a6.184,6.184,0,0,0-.175-1.069,2.345,2.345,0,0,0-.406-.848,1.911,1.911,0,0,0-.743-.569,3.337,3.337,0,0,0-2.325,0,1.915,1.915,0,0,0-.744.569,2.5,2.5,0,0,0-.418.848,4.573,4.573,0,0,0-.162,1.069,32.594,32.594,0,0,0,0,3.9,4.979,4.979,0,0,0,.151,1.069,2.2,2.2,0,0,0,.419.848,2,2,0,0,0,.754.57,3.337,3.337,0,0,0,2.325,0,2.014,2.014,0,0,0,.754-.57,2.211,2.211,0,0,0,.418-.848A5.041,5.041,0,0,0,294.987,88.3Z" fill="#27debf"/><path d="M309.789,94.48a.635.635,0,0,1-.627-.628v-2.37h-7.321a.635.635,0,0,1-.627-.627V88.391a1.6,1.6,0,0,1,.3-1l6.948-8.761a1.223,1.223,0,0,1,.384-.337,1.149,1.149,0,0,1,.476-.081h3.51a.633.633,0,0,1,.626.627v8.924h2a.633.633,0,0,1,.627.627v2.464a.633.633,0,0,1-.627.627h-2v2.37a.635.635,0,0,1-.626.628Zm-.511-6.716V83.488l-3.393,4.276Z" fill="#27debf"/></g></svg>