<svg xmlns="http://www.w3.org/2000/svg" width="111.415" height="156.767" viewBox="0 0 111.415 156.767">
  <g id="Group_118" data-name="Group 118" transform="translate(-310.242 -53.055)">
    <g id="Group_112" data-name="Group 112">
      <g id="Group_71" data-name="Group 71">
        <circle id="Ellipse_2" data-name="Ellipse 2" cx="54.551" cy="54.551" r="54.551" transform="translate(311.398 53.055)" fill="#545a5e"/>
      </g>
      <g id="Group_111" data-name="Group 111">
        <g id="Group_104" data-name="Group 104">
          <g id="Group_73" data-name="Group 73">
            <g id="Group_72" data-name="Group 72">
              <path id="Path_21" data-name="Path 21" d="M365.95,112.83a5.224,5.224,0,1,1,5.224-5.224A5.229,5.229,0,0,1,365.95,112.83Zm0-8.918a3.694,3.694,0,1,0,3.694,3.694A3.7,3.7,0,0,0,365.95,103.912Z" fill="#fff"/>
            </g>
          </g>
          <g id="Group_78" data-name="Group 78">
            <g id="Group_75" data-name="Group 75">
              <g id="Group_74" data-name="Group 74">
                <path id="Path_22" data-name="Path 22" d="M365.95,77.413a1.492,1.492,0,0,1-1.492-1.492V68.588a1.492,1.492,0,0,1,2.983,0v7.333A1.491,1.491,0,0,1,365.95,77.413Z" fill="#fff"/>
              </g>
            </g>
            <g id="Group_77" data-name="Group 77">
              <g id="Group_76" data-name="Group 76">
                <path id="Path_23" data-name="Path 23" d="M365.95,148.115a1.491,1.491,0,0,1-1.492-1.491v-7.333a1.492,1.492,0,1,1,2.983,0v7.333A1.49,1.49,0,0,1,365.95,148.115Z" fill="#fff"/>
              </g>
            </g>
          </g>
          <g id="Group_83" data-name="Group 83">
            <g id="Group_80" data-name="Group 80">
              <g id="Group_79" data-name="Group 79">
                <path id="Path_24" data-name="Path 24" d="M349.694,80.214a.765.765,0,0,1-.664-.383l-3.762-6.516a.765.765,0,0,1,1.326-.765l3.762,6.516a.765.765,0,0,1-.662,1.148Z" fill="#fff"/>
              </g>
            </g>
            <g id="Group_82" data-name="Group 82">
              <g id="Group_81" data-name="Group 81">
                <path id="Path_25" data-name="Path 25" d="M385.969,143.045a.765.765,0,0,1-.663-.382l-3.762-6.517a.765.765,0,1,1,1.325-.765l3.762,6.516a.765.765,0,0,1-.662,1.148Z" fill="#fff"/>
              </g>
            </g>
          </g>
          <g id="Group_88" data-name="Group 88">
            <g id="Group_85" data-name="Group 85">
              <g id="Group_84" data-name="Group 84">
                <path id="Path_26" data-name="Path 26" d="M337.792,92.115a.756.756,0,0,1-.382-.1l-6.516-3.762a.765.765,0,1,1,.765-1.326l6.516,3.763a.765.765,0,0,1-.383,1.428Z" fill="#fff"/>
              </g>
            </g>
            <g id="Group_87" data-name="Group 87">
              <g id="Group_86" data-name="Group 86">
                <path id="Path_27" data-name="Path 27" d="M400.623,128.39a.768.768,0,0,1-.382-.1l-6.516-3.762a.765.765,0,0,1,.765-1.326l6.516,3.762a.765.765,0,0,1-.383,1.428Z" fill="#fff"/>
              </g>
            </g>
          </g>
          <g id="Group_93" data-name="Group 93">
            <g id="Group_90" data-name="Group 90">
              <g id="Group_89" data-name="Group 89">
                <path id="Path_28" data-name="Path 28" d="M334.265,109.1h-7.333a1.492,1.492,0,0,1,0-2.983h7.333a1.492,1.492,0,0,1,0,2.983Z" fill="#fff"/>
              </g>
            </g>
            <g id="Group_92" data-name="Group 92">
              <g id="Group_91" data-name="Group 91">
                <path id="Path_29" data-name="Path 29" d="M404.967,109.1h-7.332a1.492,1.492,0,1,1,0-2.983h7.332a1.492,1.492,0,1,1,0,2.983Z" fill="#fff"/>
              </g>
            </g>
          </g>
          <g id="Group_98" data-name="Group 98">
            <g id="Group_95" data-name="Group 95">
              <g id="Group_94" data-name="Group 94">
                <path id="Path_30" data-name="Path 30" d="M331.277,128.39a.765.765,0,0,1-.383-1.428l6.516-3.762a.765.765,0,0,1,.765,1.326l-6.516,3.762A.765.765,0,0,1,331.277,128.39Z" fill="#fff"/>
              </g>
            </g>
            <g id="Group_97" data-name="Group 97">
              <g id="Group_96" data-name="Group 96">
                <path id="Path_31" data-name="Path 31" d="M394.108,92.115a.765.765,0,0,1-.383-1.428l6.516-3.763a.765.765,0,0,1,.765,1.326l-6.516,3.762A.756.756,0,0,1,394.108,92.115Z" fill="#fff"/>
              </g>
            </g>
          </g>
          <g id="Group_103" data-name="Group 103">
            <g id="Group_100" data-name="Group 100">
              <g id="Group_99" data-name="Group 99">
                <path id="Path_32" data-name="Path 32" d="M345.93,143.045a.765.765,0,0,1-.662-1.148l3.762-6.516a.765.765,0,0,1,1.326.765l-3.762,6.517A.766.766,0,0,1,345.93,143.045Z" fill="#fff"/>
              </g>
            </g>
            <g id="Group_102" data-name="Group 102">
              <g id="Group_101" data-name="Group 101">
                <path id="Path_33" data-name="Path 33" d="M382.206,80.214a.765.765,0,0,1-.662-1.148l3.762-6.516a.765.765,0,1,1,1.325.765l-3.762,6.516A.764.764,0,0,1,382.206,80.214Z" fill="#fff"/>
              </g>
            </g>
          </g>
        </g>
        <g id="Group_107" data-name="Group 107">
          <g id="Group_106" data-name="Group 106">
            <g id="Group_105" data-name="Group 105">
              <path id="Path_34" data-name="Path 34" d="M365.488,103.489a3.087,3.087,0,0,1,1.881.449V86.931a1.419,1.419,0,1,0-2.838,0v16.774A5.153,5.153,0,0,1,365.488,103.489Z" fill="#fff"/>
            </g>
          </g>
        </g>
        <g id="Group_110" data-name="Group 110">
          <g id="Group_109" data-name="Group 109">
            <g id="Group_108" data-name="Group 108">
              <path id="Path_35" data-name="Path 35" d="M381.084,131.932l-12.332-21.189a3.431,3.431,0,0,1-1.344.816,2.31,2.31,0,0,1-.641.114L379.2,133.03a1.092,1.092,0,1,0,1.887-1.1Z" fill="#fff"/>
            </g>
          </g>
        </g>
      </g>
    </g>
    <g id="Group_117" data-name="Group 117">
      <g id="Group_113" data-name="Group 113">
        <path id="Path_36" data-name="Path 36" d="M367.738,209.822a1.251,1.251,0,0,1-1.251-1.251V179.047l8.767-12.143,28.157-8.96.492.915c.141.264,3.411,6.492-1.006,10.082-2.467,2.006-7.01,4.028-10.661,5.652a38.736,38.736,0,0,0-3.927,1.878c-.751.534-1.919,3.673-2.539,6.27a1.251,1.251,0,1,1-2.433-.58c.35-1.476,1.642-6.395,3.525-7.73a32.718,32.718,0,0,1,4.357-2.124c3.33-1.482,7.89-3.511,10.1-5.307,2.033-1.653,1.336-4.531.785-6.015l-25.3,8.053-7.81,10.817v28.716A1.25,1.25,0,0,1,367.738,209.822Z" fill="#fa0"/>
      </g>
      <g id="Group_114" data-name="Group 114">
        <path id="Path_37" data-name="Path 37" d="M386.856,209.822a1.252,1.252,0,0,1-1.231-1.039c-.21-1.221-2.033-12.035-1.417-15.706.032-.193.049-.387.066-.589.2-2.209.817-4.324,6.327-7.842,12.235-7.808,20.491-22.889,20.573-23.04l5.732-11.876,1.957-11.065a2.061,2.061,0,0,0-2.041.648c-1.231,1.365-3.206,6.82-4.161,9.939l-.075.244-9.364,11.135a1.251,1.251,0,1,1-1.914-1.61l9.037-10.747c.5-1.592,2.741-8.555,4.62-10.637a4.753,4.753,0,0,1,5.944-.846l.748.44-2.422,13.431L413.4,162.745c-.373.692-8.663,15.847-21.454,24.011-4.924,3.143-5.06,4.639-5.181,5.959-.024.265-.048.522-.091.776-.462,2.753.866,11.666,1.417,14.868a1.253,1.253,0,0,1-1.022,1.445A1.28,1.28,0,0,1,386.856,209.822Z" fill="#fa0"/>
      </g>
      <g id="Group_115" data-name="Group 115">
        <path id="Path_38" data-name="Path 38" d="M364.161,209.822a1.251,1.251,0,0,1-1.251-1.251V179.855l-7.81-10.817-25.3-8.053c-.551,1.483-1.248,4.361.786,6.015,2.21,1.8,6.77,3.826,10.1,5.308a32.9,32.9,0,0,1,4.356,2.122c1.882,1.336,3.174,6.255,3.525,7.731a1.251,1.251,0,1,1-2.433.58c-.619-2.6-1.788-5.736-2.54-6.27a38.418,38.418,0,0,0-3.925-1.878c-3.651-1.624-8.2-3.646-10.662-5.652-4.418-3.59-1.148-9.818-1.007-10.082l.492-.915,28.157,8.96,8.767,12.143v29.524A1.251,1.251,0,0,1,364.161,209.822Z" fill="#fa0"/>
      </g>
      <g id="Group_116" data-name="Group 116">
        <path id="Path_39" data-name="Path 39" d="M345.044,209.822a1.289,1.289,0,0,1-.214-.018,1.252,1.252,0,0,1-1.022-1.445c.551-3.2,1.878-12.115,1.416-14.868-.042-.254-.067-.511-.091-.776-.12-1.32-.256-2.816-5.181-5.959-12.79-8.164-21.081-23.319-21.428-23.96l-5.964-12.46-2.318-13.1.748-.44a4.754,4.754,0,0,1,5.944.846c1.88,2.082,4.124,9.044,4.621,10.637l9.038,10.747a1.251,1.251,0,1,1-1.914,1.61L319.313,149.5l-.075-.244c-.955-3.119-2.93-8.575-4.161-9.939a2.052,2.052,0,0,0-2.041-.647l1.958,11.064,5.758,11.927c.056.1,8.312,15.181,20.546,22.989,5.51,3.518,6.126,5.632,6.327,7.842.017.2.034.4.066.59.617,3.67-1.207,14.484-1.416,15.705A1.252,1.252,0,0,1,345.044,209.822Z" fill="#fa0"/>
      </g>
    </g>
  </g>
</svg>
